<svg width="48" height="48" fill="none" xmlns="http://www.w3.org/2000/svg" viewBox="0 0 24 24"><path d="M5.06 11.198h-3.5v.5l.5 1v1.5l.5 1 1.5.5v-1l.5-1 1.5-.5 1 .5h.5v2h8.5v-.5l.5-1.5 1-.5 1 .5 1 .5v1.5h2v-2l-.5-1-1-.5-1.5-.5-1.5-.5-1.5.5-1.5.5-2 .5h-3l-1.5-1-1-1-1.5.5z" fill="var(--chipIconFill)"/><path d="M17.02 11.166c3.48-.09 5.024 2.242 5.089 2.342a.297.297 0 01.053.162v1.884a.3.3 0 01-.3.3h-1.114a.3.3 0 010-.6h.814v-1.49c-.273-.372-1.672-2.078-4.528-1.998-.75.03-1.485.214-2.16.54-.709.35-1.49.532-2.28.531h-2.076c-1.353 0-2.34-.204-3.38-1.249a.3.3 0 11.426-.424c.876.881 1.658 1.062 2.85 1.072l-.32-1.306a.3.3 0 01.583-.142l.36 1.45h1.56a4.463 4.463 0 002.007-.469 5.76 5.76 0 01.59-.25 9.41 9.41 0 00-4.428-1.533c-1.97-.164-3.75.677-4.25.938-.127.068-.263.13-.4.188l-1.474.61a.3.3 0 01-.137.02l-2.582-.191.628.884a.296.296 0 01.041.267l-.36 1.104-.007.021a.84.84 0 00.052.749l.4.684h.72a.3.3 0 110 .6h-.885a.3.3 0 01-.258-.146l-.492-.825a1.44 1.44 0 01-.097-1.273l.308-.96-.912-1.283a.3.3 0 01.266-.48l3.148.24 1.409-.582c.12-.044.24-.105.351-.164.536-.286 2.448-1.182 4.58-1.006 3.016.252 4.887 1.756 4.965 1.82a.302.302 0 01.085.12 5.581 5.581 0 011.156-.155z" fill="#17191C"/><path fill-rule="evenodd" clip-rule="evenodd" d="M5.587 14.359a.784.784 0 11.87 1.303.784.784 0 01-.87-1.303zm.333.804a.184.184 0 00.285-.153.184.184 0 10-.285.153z" fill="#17191C"/><path fill-rule="evenodd" clip-rule="evenodd" d="M6.02 13.016A1.992 1.992 0 106.019 17a1.992 1.992 0 00.003-3.984zm0 3.383a1.392 1.392 0 11.985-.406 1.393 1.393 0 01-.984.41v-.004zm11.5-2.048a.8.8 0 11.892 1.33.8.8 0 01-.891-1.33zm.334.831a.2.2 0 00.111.035v-.006a.2.2 0 00.202-.195.2.2 0 10-.313.166z" fill="#17191C"/><path fill-rule="evenodd" clip-rule="evenodd" d="M16.858 13.352a1.992 1.992 0 112.214 3.313 1.992 1.992 0 01-2.214-3.313zm.333 2.812c.23.153.498.235.774.235v.003a1.395 1.395 0 10-.272-2.76 1.392 1.392 0 00-.502 2.522z" fill="#17191C"/><path d="M15.11 15.283H8.7a.3.3 0 000 .6h6.41a.3.3 0 100-.6z" fill="#17191C"/></svg>