<svg width="48" height="48" fill="none" xmlns="http://www.w3.org/2000/svg" viewBox="0 0 24 24"><path d="M16.82 10.408h-13v4l.5.5h1.5l.5-1 .5-.5h1l.5.5 1 1h7.5l.5-1 .5-.5h1l1 .5.5 1h1.5l.5-.5v-.5l-.5-1.5-.5-1-4.5-1z" fill="var(--chipIconFill)"/><path fill-rule="evenodd" clip-rule="evenodd" d="M22.042 12.825v-1.232a.3.3 0 00-.168-.27c-.109-.053-2.653-1.287-5.16-1.145-.404-.389-1.947-1.838-2.916-2.28a.32.32 0 00-.103-.026c-.234-.018-5.76-.416-8.669.196a.302.302 0 00-.187.128l-.004.006c-.113.169-.84 1.26-1.155 1.903a.84.84 0 00-.468-.142h-.36a.853.853 0 00-.852.852v2.563a.853.853 0 00.852.852h.36a.851.851 0 00.299-.055v.066a.978.978 0 00.984.954h.29a.3.3 0 000-.6h-.288a.381.381 0 01-.384-.372c-.07-2.42-.038-3.468.009-3.631.087-.294.72-1.32 1.15-1.96 2.7-.529 7.74-.206 8.325-.166 1.013.494 2.778 2.22 2.796 2.238a.296.296 0 00.233.085c2.03-.157 4.2.728 4.815 1v1.284a.298.298 0 00.3.3.24.24 0 01.234.235v.753a.24.24 0 01-.234.234h-.523a.3.3 0 100 .6h.523a.84.84 0 00.834-.834v-.754a.84.84 0 00-.533-.782zm-18.578.55a.252.252 0 01-.25.252h-.36a.252.252 0 01-.253-.252v-2.563a.252.252 0 01.252-.252h.36a.252.252 0 01.251.252v2.563z" fill="#17191C"/><path d="M12.245 11.86a.3.3 0 100 .6h1.064a.3.3 0 000-.6h-1.064z" fill="#17191C"/><path fill-rule="evenodd" clip-rule="evenodd" d="M7 14.382a.82.82 0 11.909 1.365.82.82 0 01-.91-1.365zm.333.864a.22.22 0 00.123.037v.002a.219.219 0 00.218-.22.22.22 0 10-.34.181z" fill="#17191C"/><path fill-rule="evenodd" clip-rule="evenodd" d="M6.38 13.46a1.933 1.933 0 112.149 3.215 1.933 1.933 0 01-2.148-3.216zm.334 2.715c.22.147.477.225.74.225v.005a1.334 1.334 0 001.11-2.079 1.333 1.333 0 10-1.85 1.85zm11.379-1.766a.791.791 0 11.877 1.317.791.791 0 01-.877-1.317zm.333.816a.19.19 0 00.24-.024.191.191 0 10-.24.024z" fill="#17191C"/><path fill-rule="evenodd" clip-rule="evenodd" d="M18.533 13.133a1.933 1.933 0 100 3.867 1.933 1.933 0 000-3.867zm0 3.267a1.333 1.333 0 111.233-.822 1.335 1.335 0 01-1.233.827V16.4z" fill="#17191C"/><path d="M10.183 14.591h5.487a.3.3 0 110 .6h-5.487a.3.3 0 110-.6zM8.31 8.84a.3.3 0 01.434.346l-.347 1.21H11.7l-.33-1.214a.3.3 0 01.578-.158l.375 1.371h3.009a.3.3 0 010 .6H4.913a.3.3 0 010-.6h2.86l.395-1.375a.3.3 0 01.143-.18z" fill="#17191C"/></svg>