<svg width="48" height="48" fill="none" xmlns="http://www.w3.org/2000/svg" viewBox="0 0 24 24"><path d="M18.44 11.358H2.94v1.5l-.5.5v1.5h1.63l.87-1 2-.5.5.5v.5l.5.5h9.5v-.5l1-1h1l1 .5.5 1h1.5v-2.783l-2-.717h-2z" fill="var(--chipIconFill)"/><path d="M20.217 11.146c2.163.532 2.524.947 2.593 1.283.002.02.001.04-.002.06v1.86a.875.875 0 01-.874.873h-.111a.3.3 0 110-.6h.111a.274.274 0 00.274-.274v-1.813c-.193-.331-2.177-.91-4.368-1.264a.303.303 0 01-.146-.067c-2.715-2.298-4.146-2.752-4.354-2.81H8.198a6.802 6.802 0 00-.81.045l-3.422.383a.286.286 0 00-.24.208l-.6 2.177v1.8a.3.3 0 01-.3.3.23.23 0 00-.232.231v.86a.232.232 0 00.238.232h.624a.3.3 0 110 .6h-.624A.833.833 0 012 14.398v-.865a.84.84 0 01.532-.776v-1.592c0-.028.003-.055.01-.08l.609-2.211a.883.883 0 01.756-.645l3.422-.382c.292-.034.585-.05.879-.049h5.178a.28.28 0 01.063.008c.064.01 1.577.363 4.577 2.89.282.049 1.231.21 2.191.45z" fill="#17191C"/><path d="M8.662 14.625h7.77a.3.3 0 110 .6h-7.77a.3.3 0 110-.6z" fill="#17191C"/><path fill-rule="evenodd" clip-rule="evenodd" d="M6.004 14.29a.778.778 0 100 1.556.778.778 0 000-1.556zm0 .955a.178.178 0 110-.356.178.178 0 010 .356z" fill="#17191C"/><path fill-rule="evenodd" clip-rule="evenodd" d="M6.004 13.134A1.934 1.934 0 106.014 17a1.934 1.934 0 00-.01-3.867zm0 3.266a1.333 1.333 0 11.01-2.665 1.333 1.333 0 01-.01 2.665zm12.726-1.976a.774.774 0 11.858 1.288.774.774 0 01-.859-1.288zm.333.788a.175.175 0 00.097.029v-.002a.174.174 0 00.173-.172.174.174 0 10-.27.145z" fill="#17191C"/><path fill-rule="evenodd" clip-rule="evenodd" d="M18.086 13.46a1.934 1.934 0 112.148 3.215 1.934 1.934 0 01-2.148-3.216zm.333 2.715a1.333 1.333 0 101.482-2.216 1.333 1.333 0 00-1.482 2.216z" fill="#17191C"/><path d="M12.97 11.004h3.676a.3.3 0 110 .6H3.982a.3.3 0 110-.6h4.68V9.282a.3.3 0 01.6 0v1.722h3.108V9.282a.3.3 0 01.6 0v1.722zm-.148 1.779a.3.3 0 01-.212.088h-1.068a.3.3 0 010-.6h1.068a.3.3 0 01.213.512z" fill="#17191C"/></svg>