<svg width="48" height="48" fill="none" xmlns="http://www.w3.org/2000/svg" viewBox="0 0 24 24"><path d="M4.06 11.104l-2 .5v1l-.5.5-.5.5.5 2h2v-1.5l.5-.5h1.5l1 1 .19 1h10.31v-1l.5-.5 1-.5 1.5.5v1.5h1.5l.5-2-1-1-4-1-8.5.5-1.5-.5-3-.5z" fill="var(--chipIconFill)"/><path d="M16.622 11.336c.61.04 4.206.354 5.485 1.96.045.053.07.118.073.187v2.205a.3.3 0 01-.3.3h-.758a.3.3 0 110-.6h.458v-1.8c-1.274-1.442-5.028-1.662-5.066-1.662a.311.311 0 01-.151-.05c-3.184-2.128-5.076-2.136-7.08-2.136H8.62c-1.746-.03-4.458 1.78-4.486 1.8a.306.306 0 01-.166.05H2.186v1.307c0 .08-.032.156-.088.213l-.48.48.217 1.587h.562a.3.3 0 010 .6h-.823a.3.3 0 01-.298-.259l-.274-1.994a.306.306 0 01.086-.254l.498-.494v-1.477a.3.3 0 01.3-.3h1.99c.474-.31 2.934-1.855 4.706-1.855h.703c1.99.004 4.048.01 7.337 2.192z" fill="#17191C"/><path d="M15.983 15.396H7.779a.3.3 0 000 .6h8.204a.3.3 0 100-.6z" fill="#17191C"/><path fill-rule="evenodd" clip-rule="evenodd" d="M5.105 14.35a.772.772 0 10-.002 1.545.772.772 0 00.002-1.545zm0 .944A.171.171 0 014.982 15a.172.172 0 01.264.026.172.172 0 01.03.095.171.171 0 01-.171.168v.004z" fill="#17191C"/><path fill-rule="evenodd" clip-rule="evenodd" d="M4.06 13.556a1.881 1.881 0 112.087 3.129 1.881 1.881 0 01-2.088-3.13zm.333 2.628a1.281 1.281 0 101.42-2.132 1.281 1.281 0 00-1.42 2.132zm14.105-1.841a.777.777 0 10-.002 1.554.777.777 0 00.002-1.554zm0 .952a.177.177 0 11-.002-.354.177.177 0 01.002.354z" fill="#17191C"/><path fill-rule="evenodd" clip-rule="evenodd" d="M18.498 13.24a1.88 1.88 0 100 3.759 1.88 1.88 0 000-3.76zm0 3.159a1.28 1.28 0 110-2.561 1.28 1.28 0 010 2.56z" fill="#17191C"/><path d="M15 11.665a.3.3 0 01-.212.512H7.262a.293.293 0 01-.161-.047l-.95-.606a.3.3 0 11.322-.505l.876.558h3.408l-.382-.765a.3.3 0 01.536-.268l.517 1.033h3.36a.3.3 0 01.212.088z" fill="#17191C"/></svg>