<svg width="48" height="48" fill="none" xmlns="http://www.w3.org/2000/svg" viewBox="0 0 24 24"><path d="M2.58 12.363l.5-1h14l4 1 .5 1.5v1l-.5.5h-2l-.5-1.5-1.5-.5-1 .5v1.5h-8l-.5-1.5-1.5-.5-1 .5-.5 1.5h-1l-1.5-.5v-1.5l.5-1z" fill="var(--chipIconFill)"/><path fill-rule="evenodd" clip-rule="evenodd" d="M21.996 13.99l-.742-1.772a.305.305 0 00-.12-.143c-.848-.504-4.135-.869-4.8-.938-.386-.287-2.316-1.7-3.558-2.321a.3.3 0 10-.269.536c.832.417 2.025 1.232 2.789 1.775h-5.038l-.252-1.206a.3.3 0 10-.588.12l.227 1.08H6.181l-.106-.806a.303.303 0 00-.038-.112l-.001-.003a.246.246 0 00-.03-.08.29.29 0 00-.231-.13.54.54 0 00-.32.08l-1.574.94a.593.593 0 00-.136.111h-.62a.854.854 0 00-.853.851v.472l-.23.384A.301.301 0 002 12.98v1.823a.299.299 0 00.209.286l1.256.398a.3.3 0 10.181-.572L2.6 14.584v-1.513l.23-.385a.299.299 0 00.042-.154v-.554a.252.252 0 01.252-.25h13.08c1.038.105 3.754.447 4.54.82l.703 1.68a.609.609 0 01-.061.664l-.18.226h-.924a.3.3 0 100 .6h1.07a.303.303 0 00.24-.112l.27-.341a1.213 1.213 0 00.134-1.276zM4.97 11.12h.601l-.044-.333-.557.333z" fill="#17191C"/><path fill-rule="evenodd" clip-rule="evenodd" d="M5.84 14.43a.771.771 0 11.856 1.283.771.771 0 01-.856-1.283zm.334.784a.172.172 0 00.266-.144.172.172 0 10-.266.144z" fill="#17191C"/><path fill-rule="evenodd" clip-rule="evenodd" d="M6.27 13.143a1.929 1.929 0 10-.003 3.858 1.929 1.929 0 00.003-3.858zm0 3.256a1.328 1.328 0 11-.003-2.656 1.328 1.328 0 01.003 2.656zm10.817-1.963a.765.765 0 11.85 1.273.765.765 0 01-.85-1.273zm.333.773c.027.018.06.028.092.028v-.001a.164.164 0 00.166-.164.166.166 0 10-.258.137z" fill="#17191C"/><path fill-rule="evenodd" clip-rule="evenodd" d="M16.44 13.468a1.928 1.928 0 112.141 3.206 1.928 1.928 0 01-2.14-3.206zm.334 2.708a1.328 1.328 0 101.474-2.21 1.328 1.328 0 00-1.474 2.21z" fill="#17191C"/><path d="M9.12 15.12h5.66a.3.3 0 010 .6H9.12a.3.3 0 010-.6zm3.307-2.184a.3.3 0 000-.6h-1.232a.3.3 0 000 .6h1.232z" fill="#17191C"/></svg>