<svg width="48" height="48" fill="none" xmlns="http://www.w3.org/2000/svg" viewBox="0 0 24 24"><path d="M16.836 11.895h-14.5v3l1 .5h2v-.5l.5-.5v-.5l1.5-.5 1 1 .5 1h7.5v-1l.5-.5h1.5l1 1h2l-.5-2.5-2-.5h-2z" fill="var(--chipIconFill)"/><path d="M21.633 14.466l-.209-2.29a.299.299 0 00-.164-.24c-.44-.22-3.6-.563-4.734-.682a28.845 28.845 0 00-2.626-2.49.309.309 0 00-.194-.07l-9.922.12a.3.3 0 00-.255.15l-1.4 2.413a.298.298 0 00-.041.143L2 14.874a.302.302 0 00.206.292l1.622.534c.03.01.061.016.093.016h.669a.3.3 0 000-.6h-.62l-1.364-.45.08-3.054 1.276-2.207 9.64-.114c.902.76 1.755 1.577 2.555 2.445a.3.3 0 00.193.1c1.855.189 3.897.446 4.495.587l.19 2.099a.26.26 0 01-.245.292.323.323 0 00-.06.01l-.39.101a.3.3 0 10.153.581l.36-.095a.863.863 0 00.777-.949l.003.004z" fill="#17191C"/><path fill-rule="evenodd" clip-rule="evenodd" d="M6.685 14.544a.755.755 0 11.84 1.255.755.755 0 01-.84-1.255zm.334.756a.154.154 0 00.145.015.154.154 0 00.096-.144.155.155 0 10-.241.129z" fill="#17191C"/><path fill-rule="evenodd" clip-rule="evenodd" d="M7.105 13.342a1.83 1.83 0 10.002 3.659 1.83 1.83 0 00-.002-3.659zm0 3.058a1.229 1.229 0 11.002-2.458 1.229 1.229 0 01-.002 2.458zM17.362 14.544a.754.754 0 11.836 1.254.754.754 0 01-.836-1.254zm.333.755a.152.152 0 00.194-.02.154.154 0 10-.194.02z" fill="#17191C"/><path fill-rule="evenodd" clip-rule="evenodd" d="M16.771 13.66a1.819 1.819 0 112.02 3.024 1.819 1.819 0 01-2.02-3.024zm.333 2.524a1.218 1.218 0 101.354-2.026 1.218 1.218 0 00-1.354 2.026z" fill="#17191C"/><path d="M9.732 15.111h5.433a.3.3 0 010 .6H9.732a.3.3 0 010-.6zM5.531 9.78a.3.3 0 00-.3.3v1.365H3.526a.3.3 0 100 .6h11.5a.3.3 0 000-.6H12.21v-1.364a.3.3 0 00-.6 0v1.364H8.938v-1.364a.3.3 0 00-.6 0v1.364H5.831v-1.364a.3.3 0 00-.3-.3zM11.731 12.784a.3.3 0 01.212-.088h.944a.3.3 0 110 .6h-.944a.3.3 0 01-.212-.512z" fill="#17191C"/></svg>