<?xml version="1.0" encoding="utf-8"?>
<!-- Generator: Adobe Illustrator 25.0.1, SVG Export Plug-In . SVG Version: 6.00 Build 0)  -->
<svg version="1.1" id="Layer_1" xmlns="http://www.w3.org/2000/svg" xmlns:xlink="http://www.w3.org/1999/xlink" x="0px" y="0px"
	 viewBox="0 0 487 149" style="enable-background:new 0 0 487 149;" xml:space="preserve">
<style type="text/css">
	.st0{fill:#FFFFFF;}
</style>
<g id="XMLID_14_">
	<path d="M408.6,144.1H75.7c-38.5,0-70.1-31.5-70.1-70.1v0c0-38.5,31.5-70.1,70.1-70.1h332.9c38.5,0,70.1,31.5,70.1,70.1v0
		C478.7,112.6,447.2,144.1,408.6,144.1z"/>
</g>
<g>
	<g id="_Group_">
		<g id="_Group_2">
			<g id="_Group_3">
				<path id="_Path_" class="st0" d="M126.8,71.4c0.1-5.9,3.2-11.4,8.2-14.4c-3.2-4.5-8.3-7.3-13.9-7.5c-5.8-0.6-11.5,3.5-14.5,3.5
					c-3,0-7.6-3.4-12.5-3.4c-6.5,0.2-12.4,3.8-15.6,9.5c-6.7,11.6-1.7,28.7,4.7,38.1c3.2,4.6,7,9.8,11.9,9.6
					c4.8-0.2,6.6-3.1,12.5-3.1c5.7,0,7.4,3.1,12.5,3c5.2-0.1,8.5-4.7,11.6-9.3c2.3-3.3,4.1-6.9,5.3-10.7
					C130.8,84.1,126.8,78.1,126.8,71.4z"/>
				<path id="_Path_2" class="st0" d="M117.3,43.3c2.8-3.4,4.2-7.8,3.9-12.1c-4.3,0.5-8.3,2.5-11.2,5.7c-2.8,3.2-4.3,7.4-4,11.7
					C110.4,48.7,114.5,46.7,117.3,43.3z"/>
			</g>
		</g>
		<g>
			<path class="st0" d="M184.6,95.6h-15.8l-3.8,11.2h-6.7l15-41.5h7l15,41.5h-6.8L184.6,95.6z M170.4,90.5H183l-6.2-18.2h-0.2
				L170.4,90.5z"/>
			<path class="st0" d="M227.5,91.8c0,9.4-5,15.4-12.6,15.4c-3.9,0.2-7.6-1.9-9.5-5.3h-0.1v15h-6.2V76.6h6v5h0.1
				c2-3.4,5.7-5.5,9.6-5.4C222.5,76.3,227.5,82.4,227.5,91.8z M221.1,91.8c0-6.1-3.2-10.1-8-10.1c-4.7,0-7.9,4.1-7.9,10.1
				c0,6.1,3.2,10.2,7.9,10.2C218,101.9,221.1,97.9,221.1,91.8L221.1,91.8z"/>
			<path class="st0" d="M260.8,91.8c0,9.4-5,15.4-12.6,15.4c-3.9,0.2-7.6-1.9-9.5-5.3h-0.1v15h-6.2V76.6h6v5h0.1
				c2-3.4,5.7-5.5,9.6-5.4C255.7,76.3,260.8,82.4,260.8,91.8z M254.5,91.8c0-6.1-3.2-10.1-8-10.1c-4.7,0-7.9,4.1-7.9,10.1
				c0,6.1,3.2,10.2,7.9,10.2C251.3,101.9,254.5,97.9,254.5,91.8z"/>
			<path class="st0" d="M282.8,95.3c0.5,4.1,4.5,6.8,9.9,6.8c5.2,0,9-2.7,9-6.4c0-3.2-2.3-5.2-7.6-6.5l-5.4-1.3
				c-7.6-1.8-11.2-5.4-11.2-11.2c0-7.2,6.3-12.1,15.1-12.1c8.8,0,14.8,4.9,15,12.1h-6.3c-0.4-4.1-3.8-6.7-8.8-6.7
				c-5,0-8.4,2.5-8.4,6.2c0,2.9,2.2,4.7,7.6,6l4.6,1.1c8.5,2,12.1,5.4,12.1,11.5c0,7.8-6.2,12.6-16,12.6c-9.2,0-15.4-4.8-15.8-12.3
				L282.8,95.3z"/>
			<path class="st0" d="M321.7,69.5v7.2h5.7v4.9h-5.7v16.7c0,2.6,1.2,3.8,3.7,3.8c0.7,0,1.4-0.1,2.1-0.1v4.9
				c-1.2,0.2-2.3,0.3-3.4,0.3c-6.1,0-8.5-2.3-8.5-8.1V81.6h-4.4v-4.9h4.4v-7.2L321.7,69.5L321.7,69.5z"/>
			<path class="st0" d="M330.8,91.8c0-9.5,5.6-15.5,14.3-15.5c8.8,0,14.3,6,14.3,15.5c0,9.6-5.6,15.5-14.3,15.5
				C336.4,107.3,330.8,101.3,330.8,91.8z M353.2,91.8c0-6.5-3-10.4-8-10.4s-8,3.9-8,10.4c0,6.5,3,10.4,8,10.4S353.2,98.3,353.2,91.8
				L353.2,91.8z"/>
			<path class="st0" d="M364.6,76.6h5.9v5.2h0.1c0.8-3.3,3.9-5.6,7.3-5.5c0.7,0,1.4,0.1,2.1,0.3v5.8c-0.9-0.3-1.9-0.4-2.8-0.4
				c-3.4-0.1-6.4,2.5-6.5,6c0,0.3,0,0.6,0.1,1v18h-6.3V76.6z"/>
			<path class="st0" d="M408.7,98c-0.8,5.5-6.2,9.2-13,9.2c-8.8,0-14.3-5.9-14.3-15.4s5.5-15.6,14-15.6c8.4,0,13.6,5.7,13.6,14.9
				v2.1h-21.4v0.4c-0.4,4.3,2.8,8.1,7.2,8.5c0.3,0,0.6,0.1,1,0c3,0.3,5.9-1.4,7-4.3L408.7,98z M387.7,89h15.1c0.2-4-2.8-7.4-6.8-7.7
				c-0.2,0-0.4,0-0.6,0C391.2,81.3,387.7,84.7,387.7,89C387.7,88.9,387.7,88.9,387.7,89z"/>
		</g>
	</g>
	<g id="_Group_4">
		<g>
			<path class="st0" d="M169.6,34.1c4.8-0.3,9.1,3.3,9.4,8.1c0.1,0.6,0,1.2-0.1,1.7c0,6.4-3.4,10-9.4,10h-7.2V34.1H169.6z
				 M165.5,51.3h3.7c3.4,0.2,6.4-2.5,6.7-5.9c0-0.5,0-0.8-0.1-1.3c0.5-3.4-1.9-6.6-5.4-7.1c-0.4-0.1-0.8-0.1-1.2-0.1h-3.7V51.3z"/>
			<path class="st0" d="M182.5,46.5c-0.4-3.9,2.5-7.4,6.4-7.8c3.9-0.4,7.4,2.5,7.8,6.4c0.1,0.5,0.1,0.9,0,1.4
				c0.4,3.9-2.5,7.4-6.4,7.8s-7.4-2.5-7.8-6.4C182.4,47.4,182.4,47,182.5,46.5z M193.6,46.5c0-3.2-1.5-5.2-4-5.2c-2.6,0-4,1.9-4,5.2
				c0,3.3,1.4,5.2,4,5.2S193.6,49.8,193.6,46.5L193.6,46.5z"/>
			<path class="st0" d="M215.6,54.1h-3.1L209.4,43h-0.3L206,54.1h-3l-4.1-15.1h3l2.7,11.5h0.2l3.1-11.5h2.8l3.1,11.5h0.3l2.7-11.5h3
				L215.6,54.1z"/>
			<path class="st0" d="M223.2,39.1h2.8v2.4h0.2c0.8-1.7,2.6-2.8,4.5-2.6c2.7-0.2,5,1.8,5.2,4.5c0,0.4,0,0.7-0.1,1.1v9.8h-3v-9.1
				c0-2.4-1-3.6-3.2-3.6c-1.9-0.1-3.5,1.4-3.6,3.3c0,0.2,0,0.3,0,0.5V54h-3L223.2,39.1z"/>
			<path class="st0" d="M240.7,33.2h3v20.9h-3V33.2z"/>
			<path class="st0" d="M247.8,46.5c-0.4-3.9,2.5-7.4,6.4-7.8c3.9-0.4,7.4,2.5,7.8,6.4c0.1,0.5,0.1,0.9,0,1.4
				c0.4,3.9-2.5,7.4-6.4,7.8c-3.9,0.4-7.4-2.5-7.8-6.4C247.7,47.4,247.7,47,247.8,46.5z M258.9,46.5c0-3.2-1.5-5.2-4-5.2
				c-2.6,0-4,1.9-4,5.2c0,3.3,1.4,5.2,4,5.2C257.4,51.7,258.9,49.8,258.9,46.5z"/>
			<path class="st0" d="M265.1,49.8c0-2.7,2-4.3,5.6-4.5l4.1-0.3v-1.3c0-1.6-1-2.5-3.1-2.5c-1.7,0-2.8,0.6-3.2,1.7h-2.9
				c0.3-2.6,2.7-4.3,6.1-4.3c3.7,0,5.9,1.9,5.9,5V54h-2.8v-2.1h-0.3c-1,1.6-2.7,2.5-4.5,2.4c-2.5,0.3-4.7-1.6-5-4.1
				C265.1,50.2,265.1,50,265.1,49.8z M274.8,48.5v-1.3l-3.7,0.3c-2.1,0.1-3,0.8-3,2.2s1.2,2.1,2.8,2.1c1.9,0.2,3.7-1.2,3.9-3.2
				C274.7,48.6,274.7,48.6,274.8,48.5z"/>
			<path class="st0" d="M281.6,46.5c0-4.8,2.5-7.8,6.3-7.8c1.9-0.1,3.7,1,4.6,2.6h0.2v-8.3h3v20.9h-2.8v-2.4h-0.3
				c-1,1.7-2.8,2.7-4.7,2.6C284,54.4,281.6,51.3,281.6,46.5z M284.7,46.5c0,3.2,1.5,5.1,4,5.1c2.5,0,4.1-1.9,4.1-5.1
				s-1.6-5.1-4.1-5.1C286.2,41.4,284.7,43.4,284.7,46.5L284.7,46.5z"/>
			<path class="st0" d="M307.9,46.5c-0.4-3.9,2.5-7.4,6.4-7.8c3.9-0.4,7.4,2.5,7.8,6.4c0.1,0.5,0.1,0.9,0,1.4
				c0.4,3.9-2.5,7.4-6.4,7.8s-7.4-2.5-7.8-6.4C307.9,47.4,307.9,47,307.9,46.5z M319.1,46.5c0-3.2-1.5-5.2-4-5.2c-2.6,0-4,1.9-4,5.2
				c0,3.3,1.4,5.2,4,5.2C317.6,51.7,319.1,49.8,319.1,46.5z"/>
			<path class="st0" d="M326.2,39.1h2.8v2.4h0.2c0.8-1.7,2.6-2.8,4.5-2.6c2.7-0.2,5,1.8,5.2,4.5c0,0.4,0,0.7-0.1,1.1v9.8h-3v-9.1
				c0-2.4-1-3.6-3.2-3.6c-1.9-0.1-3.5,1.4-3.6,3.3c0,0.2,0,0.3,0,0.5V54h-3L326.2,39.1L326.2,39.1z"/>
			<path class="st0" d="M355.7,35.3v3.8h3.2v2.5h-3.2v7.8c0,1.6,0.6,2.3,2.1,2.3c0.4,0,0.8,0,1.2-0.1V54c-0.5,0.1-1.1,0.1-1.6,0.1
				c-3.3,0-4.6-1.2-4.6-4.1v-8.5h-2.4v-2.5h2.4v-3.8H355.7z"/>
			<path class="st0" d="M363,33.2h3v8.3h0.3c0.8-1.7,2.6-2.8,4.6-2.7c2.7-0.1,5,1.9,5.2,4.7c0,0.3,0,0.6-0.1,0.9V54h-3v-8.8
				c0-2.4-1.1-3.6-3.2-3.6c-1.9-0.1-3.6,1.3-3.8,3.2c0,0.2,0,0.4,0,0.6v8.8h-3L363,33.2z"/>
			<path class="st0" d="M393.3,50c-0.8,2.8-3.6,4.7-6.5,4.3c-3.7,0.1-6.9-2.9-7-6.7c0-0.4,0-0.8,0.1-1.1c-0.5-3.8,2.1-7.3,5.9-7.8
				c0.3-0.1,0.6-0.1,1-0.1c4.2,0,6.7,2.8,6.7,7.6v1h-10.6v0.2c-0.2,2.2,1.4,4.1,3.6,4.3c0.1,0,0.3,0,0.4,0c1.4,0.2,2.8-0.5,3.6-1.8
				L393.3,50z M382.8,45.2h7.6c0.1-2-1.4-3.7-3.4-3.9c-0.1,0-0.3,0-0.3,0C384.6,41.3,382.9,43,382.8,45.2
				C382.8,45.1,382.8,45.1,382.8,45.2L382.8,45.2z"/>
		</g>
	</g>
</g>
</svg>
