<svg id="Group_5861" data-name="Group 5861" xmlns="http://www.w3.org/2000/svg" width="23.061" height="26.169" viewBox="0 0 23.061 26.169">
  <path id="Path_14590" data-name="Path 14590" d="M0,1.739Z" transform="translate(5.103 7.811)" fill="#ffc383"/>
  <rect id="Rectangle_2368" data-name="Rectangle 2368" width="4.248" height="4.282" transform="translate(9.396 19.674)" fill="#fff"/>
  <g id="Group_3207" data-name="Group 3207">
    <path id="Path_2436" data-name="Path 2436" d="M72.65,335.469h1.827v-19.6a1.274,1.274,0,0,1,1.355-1.176h7.525v-2.427a.389.389,0,0,1,.413-.358h6.892a.387.387,0,0,1,.411.358v2.427h.634a1.276,1.276,0,0,1,1.355,1.176v19.6h1.826a.389.389,0,0,1,.413.358v1.89a.388.388,0,0,1-.413.358H72.65a.387.387,0,0,1-.411-.358v-1.89A.387.387,0,0,1,72.65,335.469Zm17.6-22.847H84.181v2.069h6.068Zm1.988,3.244a.5.5,0,0,0-.53-.461H75.832a.5.5,0,0,0-.531.461v19.6h5.405v-3.884H79.675a.388.388,0,0,1-.413-.358v-1.609a.388.388,0,0,1,.413-.357h8.188a.387.387,0,0,1,.411.357v1.609a.387.387,0,0,1-.411.358H86.831v3.884h5.405Zm-4.786,15v-.894H80.088v.894Zm-1.443.715H81.531v3.884h4.477ZM73.063,337.36H94.475v-1.175H73.063Z" transform="translate(-72.239 -311.906)" fill="#4d4d4d"/>
    <path id="Path_2437" data-name="Path 2437" d="M79.851,320.669h-3.9a.337.337,0,0,1-.336-.336v-1.851a.336.336,0,0,1,.336-.336h3.9a.335.335,0,0,1,.336.336v1.851A.337.337,0,0,1,79.851,320.669Zm-.336-1.851H76.287V320h3.228Z" transform="translate(-61.995 -310.723)" fill="#4d4d4d"/>
    <path id="Path_2438" data-name="Path 2438" d="M75.614,323.947V322.1a.336.336,0,0,1,.336-.336h3.9a.336.336,0,0,1,.336.336v1.851a.337.337,0,0,1-.336.336h-3.9A.337.337,0,0,1,75.614,323.947Zm.673-.336h3.228v-1.179H76.287Z" transform="translate(-61.995 -310.038)" fill="#4d4d4d"/>
    <path id="Path_2439" data-name="Path 2439" d="M85.919,320.669h-3.9a.337.337,0,0,1-.336-.336v-1.851a.337.337,0,0,1,.336-.336h3.9a.336.336,0,0,1,.336.335h0v1.851A.336.336,0,0,1,85.919,320.669Zm-.336-1.851H82.355V320h3.228Z" transform="translate(-76.815 -310.723)" fill="#4d4d4d"/>
    <path id="Path_2440" data-name="Path 2440" d="M85.919,324.284h-3.9a.337.337,0,0,1-.336-.336V322.1a.337.337,0,0,1,.336-.336h3.9a.336.336,0,0,1,.336.335h0v1.851A.336.336,0,0,1,85.919,324.284Zm-.336-1.851H82.355v1.179h3.228Z" transform="translate(-76.815 -310.038)" fill="#4d4d4d"/>
  </g>
</svg>
