<svg width="48" height="48" fill="none" xmlns="http://www.w3.org/2000/svg" viewBox="0 0 24 24"><path d="M16.2 11.55H2.7v2l-.5 1 1 1h1.5v-1l.5-1h1.5l1 .5.5 1.5h8.247l.252-1 .5-1h1.5l1 .5v1.5h2v-2.5l-.5-.5-1-.5-1.5-.5h-2.5z" fill="var(--chipIconFill)"/><path d="M22.216 12.9a.304.304 0 01.087.217v1.83a.852.852 0 01-.85.852h-.728a.3.3 0 110-.6h.728a.252.252 0 00.25-.251v-1.694a5.46 5.46 0 00-3.196-1.106c-1.95-.06-2.774-.151-2.968-.173a.929.929 0 00-.046-.004.304.304 0 01-.182-.098h-.001c-.046-.05-1.591-1.733-3.438-1.96a19.602 19.602 0 00-3.873-.018.564.564 0 00-.198.06l-3.194 1.617a.297.297 0 01-.136.033h-1.29a.343.343 0 00-.344.36l.097 1.652a.313.313 0 01-.019.12l-.299.779.269.697.98.12a.3.3 0 01-.036.6h-.036l-1.159-.137a.302.302 0 01-.24-.19l-.374-.974a.301.301 0 010-.214l.315-.826-.092-1.589a.944.944 0 01.942-.998h1.22l3.13-1.585a1.16 1.16 0 01.402-.12 20.269 20.269 0 014.012.02c1.862.227 3.375 1.694 3.735 2.07.271.029 1.109.105 2.847.16 2.319.073 3.63 1.298 3.685 1.35z" fill="#17191C"/><path fill-rule="evenodd" clip-rule="evenodd" d="M5.962 14.422a.776.776 0 11.861 1.29.776.776 0 01-.861-1.29zm.333.79a.176.176 0 10.195-.292.176.176 0 00-.195.292z" fill="#17191C"/><path fill-rule="evenodd" clip-rule="evenodd" d="M6.391 13.133A1.933 1.933 0 106.39 17a1.933 1.933 0 00.002-3.867zm0 3.267a1.332 1.332 0 11-.003-2.665 1.332 1.332 0 01.003 2.665zm11.319-1.968a.765.765 0 11.848 1.273.765.765 0 01-.848-1.273zm.333.772c.027.018.06.027.092.027v-.002a.164.164 0 00.163-.162.164.164 0 10-.255.137z" fill="#17191C"/><path fill-rule="evenodd" clip-rule="evenodd" d="M17.06 13.46a1.933 1.933 0 112.149 3.214 1.933 1.933 0 01-2.149-3.215zm.334 2.715a1.333 1.333 0 101.481-2.216 1.333 1.333 0 00-1.481 2.216z" fill="#17191C"/><path d="M9.044 15.337a.3.3 0 100 .6h6.542a.3.3 0 000-.6H9.044zm-.634-5.049a.3.3 0 00-.3.3v.85l-2.34.04a.3.3 0 100 .6l8.239-.136a.3.3 0 100-.6l-5.298.088v-.84a.3.3 0 00-.3-.302zm3.324 2.655a.3.3 0 01.213-.088h1.08a.3.3 0 010 .6h-1.08a.3.3 0 01-.213-.512z" fill="#17191C"/></svg>