<?xml version="1.0" encoding="utf-8"?>
<!-- Generator: Adobe Illustrator 25.0.1, SVG Export Plug-In . SVG Version: 6.00 Build 0)  -->
<svg version="1.1" id="Layer_1" xmlns="http://www.w3.org/2000/svg" xmlns:xlink="http://www.w3.org/1999/xlink" x="0px" y="0px"
	 viewBox="0 0 487 149" style="enable-background:new 0 0 487 149;" xml:space="preserve">
<style type="text/css">
	.st0{fill:#FFFFFF;stroke:#FFFFFF;stroke-width:0.2;stroke-miterlimit:10;}
	.st1{fill:#FFFFFF;}
	.st2{fill:url(#XMLID_35_);}
	.st3{fill:url(#XMLID_36_);}
	.st4{fill:url(#XMLID_38_);}
	.st5{fill:url(#XMLID_40_);}
	.st6{opacity:0.2;enable-background:new    ;}
	.st7{opacity:0.12;enable-background:new    ;}
	.st8{opacity:0.25;fill:#FFFFFF;enable-background:new    ;}
</style>
<g>
	<g id="XMLID_37_">
		<path d="M410,144.6H77C38.5,144.6,7,113,7,74.5v0C7,36,38.5,4.4,77,4.4H410C448.5,4.4,480,36,480,74.5v0
			C480,113,448.5,144.6,410,144.6z"/>
	</g>
	<g>
		<g id="XMLID_76_">
			<path id="XMLID_90_" class="st0" d="M185.9,45.8c0,2.4-0.7,4.2-2.1,5.6c-1.6,1.7-3.7,2.5-6.2,2.5c-2.4,0-4.5-0.8-6.2-2.5
				c-1.7-1.7-2.6-3.8-2.6-6.3c0-2.5,0.9-4.6,2.6-6.3c1.7-1.7,3.8-2.5,6.2-2.5c1.2,0,2.4,0.2,3.5,0.7c1.1,0.5,2,1.1,2.6,1.9l-1.5,1.5
				c-1.1-1.3-2.7-2-4.6-2c-1.8,0-3.3,0.6-4.6,1.9c-1.3,1.2-1.9,2.9-1.9,4.9c0,2,0.6,3.6,1.9,4.9c1.3,1.2,2.8,1.9,4.6,1.9
				c1.9,0,3.5-0.6,4.7-1.9c0.8-0.8,1.3-2,1.4-3.4h-6.1v-2h8.2C185.9,45,185.9,45.4,185.9,45.8z"/>
			<path id="XMLID_88_" class="st0" d="M198.9,38.7h-7.7v5.3h6.9v2h-6.9v5.3h7.7v2.1H189V36.7h9.8V38.7z"/>
			<path id="XMLID_86_" class="st0" d="M208,53.5h-2.2V38.7h-4.7v-2.1h11.6v2.1H208V53.5z"/>
			<path id="XMLID_84_" class="st0" d="M221.1,53.5V36.7h2.2v16.9H221.1z"/>
			<path id="XMLID_82_" class="st0" d="M232.9,53.5h-2.2V38.7H226v-2.1h11.6v2.1h-4.7V53.5z"/>
			<path id="XMLID_79_" class="st0" d="M259.6,51.4c-1.7,1.7-3.7,2.6-6.2,2.6c-2.5,0-4.5-0.9-6.2-2.6c-1.7-1.7-2.5-3.8-2.5-6.3
				c0-2.5,0.8-4.6,2.5-6.3c1.7-1.7,3.7-2.6,6.2-2.6c2.5,0,4.5,0.9,6.2,2.6c1.7,1.7,2.5,3.8,2.5,6.2
				C262.1,47.6,261.2,49.7,259.6,51.4z M248.8,50c1.2,1.3,2.8,1.9,4.6,1.9s3.3-0.6,4.6-1.9c1.2-1.3,1.9-2.9,1.9-4.8
				c0-2-0.6-3.6-1.9-4.8c-1.2-1.3-2.8-1.9-4.6-1.9s-3.3,0.6-4.6,1.9c-1.2,1.3-1.9,2.9-1.9,4.8C246.9,47.1,247.6,48.7,248.8,50z"/>
			<path id="XMLID_77_" class="st0" d="M265.1,53.5V36.7h2.6l8.2,13.1h0.1l-0.1-3.3v-9.9h2.2v16.9h-2.3l-8.6-13.8h-0.1l0.1,3.3v10.5
				H265.1z"/>
		</g>
		<path id="XMLID_52_" class="st1" d="M244.2,78.2c-6.6,0-12,5-12,12c0,6.9,5.4,12,12,12c6.6,0,12-5.1,12-12
			C256.2,83.2,250.8,78.2,244.2,78.2z M244.2,97.4c-3.6,0-6.7-3-6.7-7.2c0-4.3,3.1-7.2,6.7-7.2s6.7,2.9,6.7,7.2
			C250.9,94.4,247.8,97.4,244.2,97.4z M218,78.2c-6.6,0-12,5-12,12c0,6.9,5.4,12,12,12c6.6,0,12-5.1,12-12
			C230,83.2,224.6,78.2,218,78.2z M218,97.4c-3.6,0-6.7-3-6.7-7.2c0-4.3,3.1-7.2,6.7-7.2c3.6,0,6.7,2.9,6.7,7.2
			C224.7,94.4,221.6,97.4,218,97.4z M186.8,81.8v5.1H199c-0.4,2.9-1.3,4.9-2.8,6.4c-1.8,1.8-4.5,3.7-9.4,3.7
			c-7.5,0-13.3-6-13.3-13.5c0-7.5,5.8-13.5,13.3-13.5c4,0,7,1.6,9.2,3.6l3.6-3.6c-3-2.9-7.1-5.1-12.7-5.1
			c-10.2,0-18.8,8.3-18.8,18.6c0,10.2,8.6,18.6,18.8,18.6c5.5,0,9.7-1.8,13-5.2c3.4-3.4,4.4-8.1,4.4-11.9c0-1.2-0.1-2.3-0.3-3.2
			H186.8z M314.2,85.8c-1-2.7-4-7.6-10.2-7.6c-6.2,0-11.3,4.8-11.3,12c0,6.7,5.1,12,11.9,12c5.5,0,8.7-3.4,10-5.3l-4.1-2.7
			c-1.4,2-3.2,3.3-5.9,3.3c-2.7,0-4.6-1.2-5.8-3.6l16-6.6L314.2,85.8z M297.9,89.7c-0.1-4.6,3.6-7,6.3-7c2.1,0,3.9,1,4.4,2.5
			L297.9,89.7z M284.9,101.3h5.3V66.2h-5.3V101.3z M276.3,80.8h-0.2c-1.2-1.4-3.4-2.7-6.3-2.7c-6,0-11.5,5.3-11.5,12
			c0,6.7,5.5,11.9,11.5,11.9c2.9,0,5.1-1.3,6.3-2.7h0.2v1.7c0,4.6-2.4,7-6.4,7c-3.2,0-5.2-2.3-6-4.3l-4.6,1.9
			c1.3,3.2,4.8,7.1,10.6,7.1c6.2,0,11.4-3.6,11.4-12.5V78.9h-5V80.8z M270.3,97.4c-3.6,0-6.7-3-6.7-7.2c0-4.2,3-7.3,6.7-7.3
			c3.6,0,6.4,3.1,6.4,7.3C276.7,94.3,273.9,97.4,270.3,97.4z M338.8,66.2h-12.6v35.1h5.2V88h7.3c5.8,0,11.5-4.2,11.5-10.9
			C350.4,70.4,344.7,66.2,338.8,66.2z M339,83.1h-7.5v-12h7.5c3.9,0,6.1,3.2,6.1,6C345.1,79.8,342.9,83.1,339,83.1z M371.4,78.1
			c-3.8,0-7.7,1.7-9.4,5.4l4.7,1.9c1-1.9,2.8-2.6,4.8-2.6c2.7,0,5.5,1.6,5.5,4.5v0.4c-0.9-0.5-3-1.4-5.5-1.4c-5,0-10.1,2.8-10.1,7.9
			c0,4.7,4.1,7.7,8.7,7.7c3.5,0,5.5-1.6,6.7-3.4h0.2v2.7h5.1V87.8C382.1,81.6,377.4,78.1,371.4,78.1z M370.8,97.3
			c-1.7,0-4.1-0.9-4.1-3c0-2.7,3-3.8,5.6-3.8c2.3,0,3.4,0.5,4.8,1.2C376.6,95,373.8,97.3,370.8,97.3z M400.5,78.9l-6,15.2h-0.2
			l-6.2-15.2h-5.7l9.4,21.3l-5.3,11.8h5.5l14.4-33.1H400.5z M353.3,101.3h5.2V66.2h-5.2V101.3z"/>
		<g id="XMLID_39_">
			
				<linearGradient id="XMLID_35_" gradientUnits="userSpaceOnUse" x1="113.8951" y1="108.5184" x2="66.7089" y2="61.3321" gradientTransform="matrix(1 0 0 -1 0 150)">
				<stop  offset="0" style="stop-color:#00A0FF"/>
				<stop  offset="6.574450e-03" style="stop-color:#00A1FF"/>
				<stop  offset="0.2601" style="stop-color:#00BEFF"/>
				<stop  offset="0.5122" style="stop-color:#00D2FF"/>
				<stop  offset="0.7604" style="stop-color:#00DFFF"/>
				<stop  offset="1" style="stop-color:#00E3FF"/>
			</linearGradient>
			<path id="XMLID_8_" class="st2" d="M81.9,38.2c-0.8,0.9-1.3,2.2-1.3,4v62.2c0,1.7,0.5,3.1,1.3,4l0.2,0.2L117,73.6v-0.4v-0.4
				L82.2,38L81.9,38.2z"/>
			
				<linearGradient id="XMLID_36_" gradientUnits="userSpaceOnUse" x1="147.7324" y1="76.7699" x2="79.6991" y2="76.7699" gradientTransform="matrix(1 0 0 -1 0 150)">
				<stop  offset="0" style="stop-color:#FFE000"/>
				<stop  offset="0.4087" style="stop-color:#FFBD00"/>
				<stop  offset="0.7754" style="stop-color:#FFA500"/>
				<stop  offset="1" style="stop-color:#FF9C00"/>
			</linearGradient>
			<path id="XMLID_7_" class="st3" d="M128.6,85.3L117,73.6v-0.4v-0.4l11.6-11.6l0.3,0.1l13.8,7.8c3.9,2.2,3.9,5.9,0,8.1l-13.8,7.8
				L128.6,85.3z"/>
			
				<linearGradient id="XMLID_38_" gradientUnits="userSpaceOnUse" x1="122.4066" y1="70.3182" x2="58.4182" y2="6.3298" gradientTransform="matrix(1 0 0 -1 0 150)">
				<stop  offset="0" style="stop-color:#FF3A44"/>
				<stop  offset="1" style="stop-color:#C31162"/>
			</linearGradient>
			<path id="XMLID_6_" class="st4" d="M128.9,85.1L117,73.2l-35,35c1.3,1.4,3.4,1.5,5.8,0.2L128.9,85.1"/>
			
				<linearGradient id="XMLID_40_" gradientUnits="userSpaceOnUse" x1="73.1194" y1="132.5117" x2="101.6929" y2="103.9382" gradientTransform="matrix(1 0 0 -1 0 150)">
				<stop  offset="0" style="stop-color:#32A071"/>
				<stop  offset="6.850000e-02" style="stop-color:#2DA771"/>
				<stop  offset="0.4762" style="stop-color:#15CF74"/>
				<stop  offset="0.8009" style="stop-color:#06E775"/>
				<stop  offset="1" style="stop-color:#00F076"/>
			</linearGradient>
			<path id="XMLID_5_" class="st5" d="M128.9,61.4L87.8,38c-2.4-1.4-4.5-1.2-5.8,0.2l35,35L128.9,61.4z"/>
			<g id="XMLID_42_">
				<path id="XMLID_4_" class="st6" d="M128.6,84.8L87.8,108c-2.3,1.3-4.3,1.2-5.6,0l0,0l-0.2,0.2l0,0l0.2,0.2l0,0
					c1.3,1.2,3.4,1.3,5.6,0l41.1-23.3L128.6,84.8z"/>
				<path id="XMLID_3_" class="st7" d="M81.9,107.9c-0.8-0.9-1.3-2.2-1.3-4v0.4c0,1.7,0.5,3.1,1.3,4l0.2-0.2L81.9,107.9z"/>
			</g>
			<path id="XMLID_2_" class="st7" d="M142.6,76.9l-14,8l0.3,0.3l13.8-7.8c2-1.1,2.9-2.6,2.9-4.1l0,0
				C145.4,74.6,144.4,75.9,142.6,76.9z"/>
			<path id="XMLID_1_" class="st8" d="M87.8,38.4l54.8,31.2c1.8,1,2.8,2.3,2.9,3.6l0,0c0-1.5-1-2.9-2.9-4.1L87.8,38
				c-3.9-2.2-7.1-0.4-7.1,4.1v0.4C80.6,38,83.9,36.2,87.8,38.4z"/>
		</g>
	</g>
</g>
</svg>
