<svg xmlns="http://www.w3.org/2000/svg" width="19.688" height="26.169" viewBox="0 0 19.688 26.169">
  <g id="Group_5860" data-name="Group 5860" transform="translate(0)">
    <g id="Group_3204" data-name="Group 3204" transform="translate(2.663 5.894)">
      <path id="Path_2433" data-name="Path 2433" d="M117.076,328.023h1.132v-6.89a.84.84,0,0,1,.84-.84h4.665V318.56a.255.255,0,0,1,.256-.255h4.273a.255.255,0,0,1,.256.255v1.734h.393a.84.84,0,0,1,.84.84v6.89h1.132a.255.255,0,0,1,.255.256v1.351a.255.255,0,0,1-.255.256H117.076a.255.255,0,0,1-.256-.256v-1.351A.256.256,0,0,1,117.076,328.023Zm10.909-9.207h-3.762v1.477h3.762Zm1.233,2.317a.329.329,0,0,0-.329-.329h-9.842a.329.329,0,0,0-.329.329v6.89h3.351v-2.775h-.639a.255.255,0,0,1-.256-.255v-1.15a.255.255,0,0,1,.256-.255H126.5a.255.255,0,0,1,.256.255v1.15a.255.255,0,0,1-.256.255h-.639v2.775h3.351Zm-2.968,3.6V324.1h-4.564v.638Zm-.894.511H122.58v2.775h2.775Zm-8.024,4.127H130.6v-.84H117.331Z" transform="translate(-116.82 -318.304)"/>
    </g>
    <path id="Path_2435" data-name="Path 2435" d="M119.654,334.33c-2.494-2.576-5.077-6.368-5.077-11.027a9.844,9.844,0,0,1,19.688,0c0,4.659-2.583,8.451-5.077,11.027,2.356.522,3.693,1.386,3.693,2.411,0,1.875-4.358,2.887-8.46,2.887s-8.459-1.012-8.459-2.887c0-1.026,1.337-1.89,3.693-2.411Zm4.766-20.156a9.139,9.139,0,0,0-9.128,9.129c0,7.882,7.825,13.218,9.128,14.051,1.3-.832,9.129-6.169,9.129-14.051a9.14,9.14,0,0,0-9.129-9.129Zm0,24.739c4.8,0,7.744-1.265,7.744-2.172,0-.544-1.117-1.331-3.563-1.8a24.006,24.006,0,0,1-4,3.145.355.355,0,0,1-.364,0,24.005,24.005,0,0,1-4-3.145c-2.446.472-3.563,1.259-3.563,1.8,0,.906,2.946,2.172,7.743,2.172Z" transform="translate(-114.577 -313.46)" fill="#4d4d4d"/>
  </g>
</svg>
